<?xml version="1.0" encoding="UTF-8"?><svg id="Layer_2" xmlns="http://www.w3.org/2000/svg" viewBox="0 0 938.14 167.12"><defs><style>.cls-1{fill:#fff;stroke-width:0px;}</style></defs><g id="Layer_1-2"><path class="cls-1" d="M123.43,10.6c.04.43.08.76.13,1.23.78-.07,1.56-.15,2.79-.26-.71,1.16-1.24,2.02-1.83,2.98.25.13.61.33,1.21.65-.62.51-1.12.97-1.66,1.37-1.42,1.04-2.29,2.27-2.29,4.17,0,2.17-.25,4.34-.49,6.5-.07.62-.35,1.29-.72,1.8-1.91,2.68-3.09,5.54-2.68,8.91.11.9-.3,1.45-1.22,1.59-.38.06-.75.17-1.43.33.47.42.71.72,1.02.89,2.16,1.19,3.34,3.09,3.73,5.44.61,3.63,1.52,7.26.27,10.96-.13.37.06.88.18,1.31.81,2.7,1.72,5.38,2.43,8.11.29,1.11.62,1.43,1.82,1.27,2.4-.31,4.83-.51,7.24-.48,7.41.07,14.43-1.83,21.38-4.08.66-.21,1.43-1.11,1.55-1.8.58-3.22,2.51-5.29,5.18-6.93,1.23-.75,2.26-1.81,3.42-2.68.6-.45,1.24-.91,1.93-1.13,4.97-1.62,9.49-4.07,13.54-7.35,2.77-2.24,6.05-3.21,9.37-4.12,1.41-.39,2.13.27,2.4,1.77.12.67.46,1.31.58,1.98.08.43.03.94-.14,1.34-.44,1.05-1.03,2.04-1.45,3.1-.47,1.21-.76,2.5-1.26,3.7-.16.39-.71.7-1.14.89-3.16,1.36-6.34,2.67-9.5,4.03-.97.42-1.95.87-2.84,1.42-1.32.82-2.44,1.72-1.98,3.65.19.79-.11,1.87-.54,2.61-1.17,2.01-2.48,3.93-3.83,5.82-.39.54-1.06,1.11-1.68,1.21-1.48.24-2.02,1.25-2.63,2.4-4.04,7.51-8.54,14.66-14.67,20.74-5.81,5.76-10.11,12.75-14.96,19.31-2.4,3.25-5.11,6.27-7.67,9.41-.3.36-.55.76-.82,1.14l.21.36c1.52-.26,3.04-.51,4.69-.79.85.79,1.9,1.76,3.05,2.83.67-1.22,1.28-2.36,1.91-3.49,1.12-2,2.81-2.9,5.08-2.37,1.51.35,2.98.9,4.49,1.28.49.12,1.08.13,1.55-.02,1.26-.41,2.18-.05,2.52,1.17.65,2.3,2.28,3.48,4.37,4.25,2.23.83,3.95,2.17,4.77,4.55.41,1.2,1.36,1.77,2.7,1.83.68.03,1.45.39,1.98.85,2.54,2.18,4.28,4.97,5.77,7.92.32.63.6,1.28.94,1.91.83,1.55,1.21,1.7,2.73.85,2.3-1.28,4.55-1.16,6.78.14.79.46,1.56.94,2.32,1.44,1.61,1.04,3.28,1.39,5.2.94,2.38-.56,4.6-.12,6.57,1.49.48.39,1.32.59,1.95.52,4.22-.45,7.5,1.03,10.03,4.44.5.67,1.41,1.1,2.21,1.47.87.4,1.85.54,2.73.91.32.14.73.87.67.94-.75.84-1.45,2.09-2.4,2.33-18.13,4.6-36.41,6.93-54.99,2.98-3.4-.72-6.79-1.77-9.95-3.19-3.8-1.71-7.67-2.5-11.77-2.51-1.78,0-3.58.09-4.58-1.93-.13-.26-1.09-.24-1.63-.15-6.54,1.1-13.03,2.61-19.61,3.28-10.59,1.07-21.23.9-31.84-.16-2.77-.27-5.54-.61-8.32-.71-2.41-.08-4.29-1.01-5.81-2.8-.69-.81-1.44-1.58-2.02-2.46-.77-1.15-1.48-1.03-2.26-.09-.71.85-1.44,1.7-2.08,2.61-2.38,3.44-5.25,6.41-8.55,8.99-3.24,2.53-6.91,3.88-10.99,3.7-2.87-.13-5.74-.54-8.56-1.11-2.78-.56-4.28-3-4.19-5.88.08-2.56.04-5.13-.09-7.69-.25-4.99,1.23-9.28,4.84-12.77,7.82-7.56,15.67-15.1,23.5-22.65.33-.32.64-.65.99-.94,1.93-1.64,2.22-3.64,1.3-5.89-1.32-3.25-3.7-5.65-6.39-7.76-3.03-2.38-6.11-4.68-9.12-7.07-6.32-5.02-11.08-11.36-15.16-18.23-1.09-1.83-2.22-2.85-4.53-2.69-4.85.35-7.46-3.59-8.34-7.68-.29-1.34-.04-2.79-.95-4.01-.13-.18-.18-.52-.1-.73,1.02-2.74-1.15-3.72-2.81-4.78-2.21-1.42-3.98-3.09-4.72-5.69-.55-1.93-.23-3.64.96-5.3,1.55-2.17,2.94-4.45,4.44-6.66.48-.71.97-1.52,1.66-1.93.75-.44,1.89-.83,2.6-.56.71.28,1.46,1.34,1.57,2.15.8,5.73,4.04,10.28,7.07,14.93.19.3,1.09.44,1.47.27,2.85-1.34,3.73-1.01,4.57,2.06.34,1.25.41,2.57.64,3.85.07.38.14.84.39,1.09,2.19,2.16,4.2,4.59,6.7,6.3,1.79,1.22,4.23,1.51,6.42,2.1.32.09.94-.36,1.19-.72,3.52-4.91,8.03-8.83,12.7-12.56,1.53-1.22,2.51-2.68,3.04-4.57,1.48-5.29,4.31-9.67,8.93-12.8,2.63-1.78,5.51-2.67,8.71-2.73,1.28-.02,2.61-.32,3.81-.77,4.45-1.65,8.85-3.45,13.29-5.13,1.66-.63,1.8-.77.88-2.33-3.69-6.31-4.1-12.92-1.67-19.72.41-1.15,1.08-2.41,2-3.14,5.64-4.47,11.94-6.58,19.12-4.59,4.73,1.31,7.73,4.83,10.35,8.7.59.88,1.12,1.52,2.33,1.15ZM101.67,109.88c.2.27.44.92.74.95.68.07,1.55.04,2.06-.33,8.27-6.01,16.54-12.02,24.69-18.18,1.55-1.17,2.87-2.86,3.81-4.58,1.27-2.31,2.88-3.97,5.39-4.79.66-.22,1.42-.43,1.88-.9.5-.51.69-1.31,1.02-1.98-.65.05-1.35-.05-1.94.16-6.83,2.47-13.86,4.1-21,5.39-2.57.46-4.47-.23-5.79-2.49-.23-.39-.46-.8-.76-1.13-.35-.38-.79-.69-1.19-1.03-.29.44-.72.84-.84,1.32-.67,2.64-1.27,5.31-1.88,7.97-.42,1.83-1.04,3.58-2.83,4.45-1.44.7-1.78,1.72-1.64,3.19.36,3.67-.06,7.27-1.35,10.75-.12.33-.21.67-.39,1.24ZM68.92,91.2c-.22-.98-.4-1.97-.68-2.93-.59-2.04-1.51-4.02-1.77-6.1-.44-3.48-2.03-6.41-3.6-9.41-.48-.92-.94-1.02-1.72-.28-3.3,3.12-6.61,6.22-9.99,9.26-.81.73-.88,1.32-.17,2,1.75,1.65,3.49,3.32,5.33,4.85,1.59,1.32,3.45,2.32,4.95,3.73,1.3,1.23,2.28,2.81,3.35,4.27.63.86,1.17.98,1.9.1,1.32-1.6,2.32-3.31,2.4-5.5Z"/><path class="cls-1" d="M297.22,32.95c-.2,1.6-.9,3.3-2.1,5.1-1.5,2.1-3.2,3.25-5.1,3.45-.7.1-1.6-.07-2.7-.52-1.1-.45-1.95-.67-2.55-.67-1.8,0-6.1,1.45-12.9,4.35-7.4,3.1-12.75,5.95-16.05,8.55v27.45c.5-.2,2.85-1.6,7.05-4.2,2.8-1.7,5.05-2.6,6.75-2.7,1.8-.1,5.15,2.7,10.05,8.4,4.9,5.7,7.25,9.5,7.05,11.4-.2,1.8-1.2,3.6-3,5.4-1.4,1.4-2.8,2.3-4.2,2.7-.6.2-1.4.07-2.4-.38-1-.45-1.7-.68-2.1-.68-.3,0-.6.1-.9.3-2.9,1.2-5.45,2.3-7.65,3.3-5.5,2.5-9.05,4.55-10.65,6.15v21.9c0,.9.52,1.98,1.57,3.23,1.05,1.25,1.58,2.58,1.58,3.98-.2,5.6-2.85,8.95-7.95,10.05-5.6-2.6-10.35-5.45-14.25-8.55-4.3-3.5-6.45-6.55-6.45-9.15V32.65c0-1.6-.58-3.23-1.73-4.88-1.15-1.65-1.63-2.87-1.43-3.68.3-1.6,1.25-3.12,2.85-4.57,1.6-1.45,3.4-2.27,5.4-2.48.9-.1,3.65,1.33,8.25,4.27,4.6,2.95,7.65,4.58,9.15,4.88l16.5-6.75c1.3-1,3.55-2.15,6.75-3.45,2.5-.3,6.7,1.93,12.6,6.68,5.9,4.75,8.75,8.17,8.55,10.27Z"/><path class="cls-1" d="M364.87,57.1c.7,1,1.05,2,1.05,3s-.58,2.2-1.73,3.6c-1.15,1.4-1.72,2.3-1.72,2.7v69.75c0,.6.32,1.65.97,3.15.65,1.5.98,2.6.98,3.3,0,1.8-1.55,3.1-4.65,3.9-1.6.4-5.35-.15-11.25-1.65-6.4-1.6-9.9-3.2-10.5-4.8-.5-1.3-.35-3.05.45-5.25,1-2.6,1.5-4.4,1.5-5.4s-.15-2.3-.45-3.9c-1.5,5-3.6,9.45-6.3,13.35-3.3,4.6-6.6,6.9-9.9,6.9s-7.8-1.15-13.2-3.45-8.5-4.4-9.3-6.3c-2.8-6.4-4.2-30.05-4.2-70.95-.8-1.9-1.2-3.8-1.2-5.7,0-3.1,1.15-5.2,3.45-6.3.7-.3,1.95-.45,3.75-.45,3.4,0,7.45.52,12.15,1.58,4.7,1.05,7.55,2.13,8.55,3.23.5.6.75,1.25.75,1.95,0,1.1-.75,2.88-2.25,5.33-1.5,2.45-2.25,4.23-2.25,5.32-.2,39.4.1,59.25.9,59.55,1.4.5,4.92-4.12,10.57-13.88,5.65-9.75,8.48-17.18,8.48-22.27v-28.05c-1.3-1.3-1.95-2.9-1.95-4.8,0-3.9,1.7-6.55,5.1-7.95.4-.2,1-.3,1.8-.3,2.7,0,6.65.63,11.85,1.88,5.2,1.25,8.05,2.23,8.55,2.92Z"/><path class="cls-1" d="M440.92,113.5c0,1.9-1.65,4.45-4.95,7.65-2.7,5.9-5.1,10.15-7.2,12.75-4.6,6-10.25,9.55-16.95,10.65-1.4.2-2.75.3-4.05.3-5.6,0-12.5-2.7-20.7-8.1-7.1-4.8-10.65-15.85-10.65-33.15,0-12.8,1.95-24.4,5.85-34.8,4.3-11.3,9.55-17.15,15.75-17.55,4.9-.3,10.9,1,18,3.9,7.1,2.9,11.9,6.1,14.4,9.6,2.1,2.9,3.15,6.75,3.15,11.55,0,1.3-.1,3.18-.3,5.62-.2,2.45-.25,4.18-.15,5.17.2,2.7.3,3.95.3,3.75,0,3.2-1.55,4.75-4.65,4.65-3.6-.1-7-.65-10.2-1.65-4.3-1.5-6.9-3.55-7.8-6.15-.3-.9.12-2.1,1.27-3.6,1.15-1.5,1.62-2.75,1.43-3.75.2-.7.3-2.45.3-5.25,0-6-1.05-9.1-3.15-9.3-3.2-.2-5.9,4.65-8.1,14.55-2,8.8-3,18.4-3,28.8,0,12.3,1.45,18.8,4.35,19.5,2.3.5,5.3-2,9-7.5,3.1-4.7,4.77-7.88,5.02-9.53.25-1.65.47-3.32.68-5.02.7-2.8,2.5-4.1,5.4-3.9,1.8.2,4.95,1.35,9.45,3.45,4.5,2.1,6.87,3.67,7.12,4.72.25,1.05.38,1.93.38,2.62Z"/><path class="cls-1" d="M523.87,128.05c.2,1.9-1.7,5.35-5.7,10.35-4,5-7.1,7.35-9.3,7.05-4.3-.6-13.4-12.2-27.3-34.8-1,1.1-2.7,2.85-5.1,5.25v17.7c0,.5.12,1.4.38,2.7.25,1.3.42,2.25.53,2.85.3,3.4-.4,5.6-2.1,6.6-.9.5-2.35.75-4.35.75-3.8,0-7.5-.7-11.1-2.1-4.2-1.6-6.3-3.5-6.3-5.7V27.4c0-1.6.5-3.35,1.5-5.25,1-1.9,2.15-3.1,3.45-3.6.3-.1.7-.15,1.2-.15,2.6,0,6.23.88,10.88,2.62,4.65,1.75,7.22,3.28,7.73,4.57.3.7.45,1.3.45,1.8,0,.8-.4,1.83-1.2,3.07-.8,1.25-1.2,2.43-1.2,3.52v52.05l22.2-30.45c1.3-1.8,2.95-2.75,4.95-2.85,1.9-.1,4.55,1.1,7.95,3.6,3.8,2.8,5.75,5.55,5.85,8.25.1,1.1-2.25,5-7.05,11.7-7.4,10.6-11.75,16.9-13.05,18.9l19.5,26.85c.7,1,2.15,2.05,4.35,3.15,1.8.9,2.75,1.85,2.85,2.85Z"/><path class="cls-1" d="M596.77,32.95c-.2,1.6-.9,3.3-2.1,5.1-1.5,2.1-3.2,3.25-5.1,3.45-.7.1-1.6-.07-2.7-.52-1.1-.45-1.95-.67-2.55-.67-1.8,0-6.1,1.45-12.9,4.35-7.4,3.1-12.75,5.95-16.05,8.55v27.45c.5-.2,2.85-1.6,7.05-4.2,2.8-1.7,5.05-2.6,6.75-2.7,1.8-.1,5.15,2.7,10.05,8.4,4.9,5.7,7.25,9.5,7.05,11.4-.2,1.8-1.2,3.6-3,5.4-1.4,1.4-2.8,2.3-4.2,2.7-.6.2-1.4.07-2.4-.38-1-.45-1.7-.68-2.1-.68-.3,0-.6.1-.9.3-2.9,1.2-5.45,2.3-7.65,3.3-5.5,2.5-9.05,4.55-10.65,6.15v21.9c0,.9.52,1.98,1.57,3.23,1.05,1.25,1.58,2.58,1.58,3.98-.2,5.6-2.85,8.95-7.95,10.05-5.6-2.6-10.35-5.45-14.25-8.55-4.3-3.5-6.45-6.55-6.45-9.15V32.65c0-1.6-.58-3.23-1.73-4.88-1.15-1.65-1.63-2.87-1.43-3.68.3-1.6,1.25-3.12,2.85-4.57,1.6-1.45,3.4-2.27,5.4-2.48.9-.1,3.65,1.33,8.25,4.27,4.6,2.95,7.65,4.58,9.15,4.88l16.5-6.75c1.3-1,3.55-2.15,6.75-3.45,2.5-.3,6.7,1.93,12.6,6.68,5.9,4.75,8.75,8.17,8.55,10.27Z"/><path class="cls-1" d="M633.82,139.75c.4,3.6-.85,5.85-3.75,6.75-.5.1-1.2.15-2.1.15-3.6,0-8.05-.75-13.35-2.25-5.7-1.6-9.05-3.3-10.05-5.1-.5-.8-.05-2.35,1.35-4.65.9-1.5,1.35-4.25,1.35-8.25v-63c-1.2-3.8-1.8-6.35-1.8-7.65s1.85-1.95,5.55-1.95c3,0,7.17.93,12.52,2.77,5.35,1.85,8.57,3.48,9.67,4.88.3.4.45.9.45,1.5,0,.8-.58,2.3-1.73,4.5-1.15,2.2-1.73,3.85-1.73,4.95v60.3c0,1,.57,2.25,1.73,3.75,1.15,1.5,1.77,2.6,1.88,3.3ZM634.27,36.1c.1.2.15.6.15,1.2,0,2.2-.45,5.05-1.35,8.55-1,3.8-1.95,5.9-2.85,6.3-1,.4-5.3-.68-12.9-3.23-7.6-2.55-11.65-4.37-12.15-5.48-.3-.5-.45-1.25-.45-2.25,0-2.7.7-5.55,2.1-8.55,1.6-3.4,3.4-5.3,5.4-5.7,2.3-.4,6.3.48,12,2.62,5.7,2.15,9.05,4.33,10.05,6.52Z"/><path class="cls-1" d="M716.62,133.15c.8,1.9,1.2,3.8,1.2,5.7,0,3-1.15,5.05-3.45,6.15-.7.3-1.95.45-3.75.45-3.4,0-7.45-.52-12.15-1.58-4.7-1.05-7.55-2.08-8.55-3.07-.5-.6-.75-1.25-.75-1.95,0-1.1.75-2.87,2.25-5.32,1.5-2.45,2.25-4.22,2.25-5.33.2-39.4-.1-59.25-.9-59.55-1.4-.5-4.85,4-10.35,13.5-5.8,10-8.7,17.55-8.7,22.65v28.05c1.3,1.3,1.95,2.9,1.95,4.8,0,3.8-1.7,6.4-5.1,7.8-.4.2-1,.3-1.8.3-2.7,0-6.65-.63-11.85-1.88-5.2-1.25-8.1-2.27-8.7-3.07-.6-.8-.9-1.7-.9-2.7s.57-2.2,1.73-3.6c1.15-1.4,1.73-2.3,1.73-2.7V62.05c0-.8-.4-1.85-1.2-3.15-.8-1.3-1.05-2.4-.75-3.3.6-2.1,2.15-3.45,4.65-4.05,1.6-.4,5.35.15,11.25,1.65,6.4,1.6,9.9,3.25,10.5,4.95.4,1.1.25,2.75-.45,4.95-1.1,3.5-1.65,5.5-1.65,6,0,1.1.2,2.3.6,3.6,1.5-5,3.6-9.45,6.3-13.35,3.3-4.7,6.6-7.05,9.9-7.05s7.8,1.18,13.2,3.52c5.4,2.35,8.5,4.48,9.3,6.38,2.8,6.4,4.2,30.05,4.2,70.95Z"/><path class="cls-1" d="M800.61,27.4c.2,1-.18,2.95-1.12,5.85-.95,2.9-1.42,4.55-1.42,4.95v97.8c0,3.3.25,5.35.75,6.15,1.5,2.6,1.95,4.35,1.35,5.25-.5.8-1.8,1.2-3.9,1.2-2.3,0-5.8-.45-10.5-1.35-5.3-1.1-8.1-1.65-8.4-1.65-1.8-.2-3.1-1.4-3.9-3.6-.1-.2-.15-.85-.15-1.95,0-4.1.55-10.2,1.65-18.3-2.4,4.8-4.75,9.6-7.05,14.4-3.3,5.9-6.25,8.6-8.85,8.1-19.7-4-29.55-16.1-29.55-36.3,0-11.5,3.15-23.2,9.45-35.1,6.1-11.5,12.8-19,20.1-22.5,1-.5,1.95-.75,2.85-.75,2.5,0,6.85,3.1,13.05,9.3v-29.1c-.1-.8-.55-2.22-1.35-4.27-.8-2.05-1.2-3.57-1.2-4.58,0-2.1,1.4-3.15,4.2-3.15,2.5,0,6.1.7,10.8,2.1,3,1,5.95,1.95,8.85,2.85,2.5.7,3.95,2.25,4.35,4.65ZM774.51,66.1c-5.6,2.5-10.68,8-15.23,16.5-4.55,8.5-6.82,16.4-6.82,23.7,0,8.5,3.3,13.15,9.9,13.95,3.5.4,7.55-17.65,12.15-54.15Z"/><path class="cls-1" d="M870.21,116.5c.9,1.5-1.05,5.95-5.85,13.35-5.2,7.9-10.3,13.25-15.3,16.05-.6.3-1.5.45-2.7.45-3.9,0-9-1.2-15.3-3.6-6.7-2.4-11.1-5-13.2-7.8-5.8-7.5-8.7-17.9-8.7-31.2,0-12.6,2.55-23.7,7.65-33.3,5.5-10.5,12.5-15.85,21-16.05,3.1-.1,6.85.7,11.25,2.4,5.4,2.1,9.85,4.95,13.35,8.55.9.9,1.75,3.6,2.55,8.1,1,4.8,1.5,9.5,1.5,14.1,0,6.8-1.1,11.5-3.3,14.1-10.3,3.3-20.8,5.15-31.5,5.55-.2,4.9.4,10.05,1.8,15.45,1.4,5.4,2.85,8.15,4.35,8.25,2,.1,4.4-1.55,7.2-4.95,2.5-2.9,4.05-5.35,4.65-7.35.7-3,1.65-6.1,2.85-9.3,1.6-.2,4.75.6,9.45,2.4,4.7,1.8,7.45,3.4,8.25,4.8ZM843.51,70.6c-1.7-.2-4.08,2.5-7.12,8.1-3.05,5.6-4.83,10.95-5.32,16.05,4.5-.2,8.1-1.3,10.8-3.3,1.6-1.2,2.4-6.2,2.4-15,0-3.7-.25-5.65-.75-5.85Z"/><path class="cls-1" d="M938.01,63.25c.4,1.6-.15,2.9-1.65,3.9-1.2.6-2.35,1.25-3.45,1.95-6.3,9.6-14.85,22.55-25.65,38.85,0,15.9.05,24.1.15,24.6.1.5.47,1.78,1.12,3.82.65,2.05.98,3.68.98,4.88,0,1.9-.85,3.2-2.55,3.9-1.1.5-2.6.75-4.5.75-3.8,0-8-.85-12.6-2.55-5.8-2-8.7-4.55-8.7-7.65,0-.9.4-2.35,1.2-4.35.8-2,1.2-3.65,1.2-4.95v-59.4c-1.1-5.6-1.65-8.5-1.65-8.7,0-3.1,1.4-5.05,4.2-5.85,1.2-.3,2.65-.45,4.35-.45,3.5,0,7.17.58,11.02,1.73,3.85,1.15,6.12,2.38,6.83,3.68.2.4.3.9.3,1.5,0,.5-.7,2.9-2.1,7.2v7.2c2.4-4.3,4.75-8.6,7.05-12.9,3.1-5.4,5.4-8.25,6.9-8.55,2.2-.4,5.55.9,10.05,3.9s7,5.5,7.5,7.5Z"/></g></svg>